<?xml version="1.0" encoding="UTF-8"?>
<svg xmlns="http://www.w3.org/2000/svg" width="4.7244in" height="5.5118in" viewBox="0 0 340.16 396.85">
<title>Find A Crib card a2 120x140mm (tap or scan)</title>
<rect x="0.00" y="0.00" width="340.16" height="396.85" rx="0.00" fill="#006AFF"/>
<path d="M0,194.00 C105.45,210.00 200.69,136.00 340.16,148.00 L340.16,396.85 L0,396.85 Z" fill="#2F86FF"/>
<path d="M0,209.00 C105.45,225.00 200.69,151.00 340.16,163.00 L340.16,396.85 L0,396.85 Z" fill="#FFFFFF"/>
<text x="170.08" y="56.00" font-family="Inter Display, Inter, Helvetica Neue, Helvetica, Arial, sans-serif" font-size="24.00" font-weight="700" fill="#FFFFFF" text-anchor="middle" letter-spacing="-0.50">Find A Crib</text>
<text x="170.08" y="107.00" font-family="Inter Display, Inter, Helvetica Neue, Helvetica, Arial, sans-serif" font-size="21.00" font-weight="700" fill="#FFFFFF" text-anchor="middle" letter-spacing="-0.50">Is your building</text>
<text x="170.08" y="135.00" font-family="Inter Display, Inter, Helvetica Neue, Helvetica, Arial, sans-serif" font-size="21.00" font-weight="700" fill="#FFFFFF" text-anchor="middle" letter-spacing="-0.50">rent-stabilized?</text>
<circle cx="170.08" cy="183.00" r="36.00" fill="#FFFFFF"/>
<rect x="155.08" y="168.00" width="30.00" height="30.00" rx="6.60" fill="#006AFF"/><path d="M170.08,172.80 L180.28,183.00 L170.08,193.20 L159.88,183.00 Z" fill="#FFFFFF"/><path d="M170.08,178.20 L174.88,183.00 L170.08,187.80 L165.28,183.00 Z" fill="#006AFF"/>
<path d="M58.50,287.68 A10.56,10.56 0 0,1 58.50,304.32" fill="none" stroke="#0A0A23" stroke-width="7.59" stroke-linecap="round"/><path d="M67.44,276.24 A25.08,25.08 0 0,1 67.44,315.76" fill="none" stroke="#0A0A23" stroke-width="7.59" stroke-linecap="round"/><path d="M76.38,264.79 A39.60,39.60 0 0,1 76.38,327.21" fill="none" stroke="#0A0A23" stroke-width="7.59" stroke-linecap="round"/><path d="M85.32,253.35 A54.12,54.12 0 0,1 85.32,338.65" fill="none" stroke="#0A0A23" stroke-width="7.59" stroke-linecap="round"/>
<rect x="162.00" y="236.00" width="0.80" height="132.00" rx="0.00" fill="#D6DBE2"/>
<path d="M194.000,240.000h3.394v3.394h-3.394zM197.394,240.000h3.394v3.394h-3.394zM200.788,240.000h3.394v3.394h-3.394zM204.182,240.000h3.394v3.394h-3.394zM207.576,240.000h3.394v3.394h-3.394zM210.970,240.000h3.394v3.394h-3.394zM214.364,240.000h3.394v3.394h-3.394zM224.545,240.000h3.394v3.394h-3.394zM227.939,240.000h3.394v3.394h-3.394zM234.727,240.000h3.394v3.394h-3.394zM248.303,240.000h3.394v3.394h-3.394zM251.697,240.000h3.394v3.394h-3.394zM261.879,240.000h3.394v3.394h-3.394zM265.273,240.000h3.394v3.394h-3.394zM272.061,240.000h3.394v3.394h-3.394zM275.455,240.000h3.394v3.394h-3.394zM282.242,240.000h3.394v3.394h-3.394zM285.636,240.000h3.394v3.394h-3.394zM289.030,240.000h3.394v3.394h-3.394zM292.424,240.000h3.394v3.394h-3.394zM295.818,240.000h3.394v3.394h-3.394zM299.212,240.000h3.394v3.394h-3.394zM302.606,240.000h3.394v3.394h-3.394zM194.000,243.394h3.394v3.394h-3.394zM214.364,243.394h3.394v3.394h-3.394zM231.333,243.394h3.394v3.394h-3.394zM238.121,243.394h3.394v3.394h-3.394zM241.515,243.394h3.394v3.394h-3.394zM248.303,243.394h3.394v3.394h-3.394zM258.485,243.394h3.394v3.394h-3.394zM261.879,243.394h3.394v3.394h-3.394zM265.273,243.394h3.394v3.394h-3.394zM272.061,243.394h3.394v3.394h-3.394zM282.242,243.394h3.394v3.394h-3.394zM302.606,243.394h3.394v3.394h-3.394zM194.000,246.788h3.394v3.394h-3.394zM200.788,246.788h3.394v3.394h-3.394zM204.182,246.788h3.394v3.394h-3.394zM207.576,246.788h3.394v3.394h-3.394zM214.364,246.788h3.394v3.394h-3.394zM231.333,246.788h3.394v3.394h-3.394zM241.515,246.788h3.394v3.394h-3.394zM248.303,246.788h3.394v3.394h-3.394zM251.697,246.788h3.394v3.394h-3.394zM258.485,246.788h3.394v3.394h-3.394zM261.879,246.788h3.394v3.394h-3.394zM268.667,246.788h3.394v3.394h-3.394zM272.061,246.788h3.394v3.394h-3.394zM282.242,246.788h3.394v3.394h-3.394zM289.030,246.788h3.394v3.394h-3.394zM292.424,246.788h3.394v3.394h-3.394zM295.818,246.788h3.394v3.394h-3.394zM302.606,246.788h3.394v3.394h-3.394zM194.000,250.182h3.394v3.394h-3.394zM200.788,250.182h3.394v3.394h-3.394zM204.182,250.182h3.394v3.394h-3.394zM207.576,250.182h3.394v3.394h-3.394zM214.364,250.182h3.394v3.394h-3.394zM224.545,250.182h3.394v3.394h-3.394zM227.939,250.182h3.394v3.394h-3.394zM234.727,250.182h3.394v3.394h-3.394zM238.121,250.182h3.394v3.394h-3.394zM241.515,250.182h3.394v3.394h-3.394zM244.909,250.182h3.394v3.394h-3.394zM248.303,250.182h3.394v3.394h-3.394zM251.697,250.182h3.394v3.394h-3.394zM261.879,250.182h3.394v3.394h-3.394zM268.667,250.182h3.394v3.394h-3.394zM272.061,250.182h3.394v3.394h-3.394zM275.455,250.182h3.394v3.394h-3.394zM282.242,250.182h3.394v3.394h-3.394zM289.030,250.182h3.394v3.394h-3.394zM292.424,250.182h3.394v3.394h-3.394zM295.818,250.182h3.394v3.394h-3.394zM302.606,250.182h3.394v3.394h-3.394zM194.000,253.576h3.394v3.394h-3.394zM200.788,253.576h3.394v3.394h-3.394zM204.182,253.576h3.394v3.394h-3.394zM207.576,253.576h3.394v3.394h-3.394zM214.364,253.576h3.394v3.394h-3.394zM221.152,253.576h3.394v3.394h-3.394zM234.727,253.576h3.394v3.394h-3.394zM241.515,253.576h3.394v3.394h-3.394zM244.909,253.576h3.394v3.394h-3.394zM248.303,253.576h3.394v3.394h-3.394zM251.697,253.576h3.394v3.394h-3.394zM258.485,253.576h3.394v3.394h-3.394zM261.879,253.576h3.394v3.394h-3.394zM265.273,253.576h3.394v3.394h-3.394zM272.061,253.576h3.394v3.394h-3.394zM275.455,253.576h3.394v3.394h-3.394zM282.242,253.576h3.394v3.394h-3.394zM289.030,253.576h3.394v3.394h-3.394zM292.424,253.576h3.394v3.394h-3.394zM295.818,253.576h3.394v3.394h-3.394zM302.606,253.576h3.394v3.394h-3.394zM194.000,256.970h3.394v3.394h-3.394zM214.364,256.970h3.394v3.394h-3.394zM224.545,256.970h3.394v3.394h-3.394zM227.939,256.970h3.394v3.394h-3.394zM234.727,256.970h3.394v3.394h-3.394zM244.909,256.970h3.394v3.394h-3.394zM248.303,256.970h3.394v3.394h-3.394zM251.697,256.970h3.394v3.394h-3.394zM258.485,256.970h3.394v3.394h-3.394zM265.273,256.970h3.394v3.394h-3.394zM272.061,256.970h3.394v3.394h-3.394zM282.242,256.970h3.394v3.394h-3.394zM302.606,256.970h3.394v3.394h-3.394zM194.000,260.364h3.394v3.394h-3.394zM197.394,260.364h3.394v3.394h-3.394zM200.788,260.364h3.394v3.394h-3.394zM204.182,260.364h3.394v3.394h-3.394zM207.576,260.364h3.394v3.394h-3.394zM210.970,260.364h3.394v3.394h-3.394zM214.364,260.364h3.394v3.394h-3.394zM221.152,260.364h3.394v3.394h-3.394zM227.939,260.364h3.394v3.394h-3.394zM234.727,260.364h3.394v3.394h-3.394zM241.515,260.364h3.394v3.394h-3.394zM248.303,260.364h3.394v3.394h-3.394zM255.091,260.364h3.394v3.394h-3.394zM261.879,260.364h3.394v3.394h-3.394zM268.667,260.364h3.394v3.394h-3.394zM275.455,260.364h3.394v3.394h-3.394zM282.242,260.364h3.394v3.394h-3.394zM285.636,260.364h3.394v3.394h-3.394zM289.030,260.364h3.394v3.394h-3.394zM292.424,260.364h3.394v3.394h-3.394zM295.818,260.364h3.394v3.394h-3.394zM299.212,260.364h3.394v3.394h-3.394zM302.606,260.364h3.394v3.394h-3.394zM221.152,263.758h3.394v3.394h-3.394zM227.939,263.758h3.394v3.394h-3.394zM234.727,263.758h3.394v3.394h-3.394zM244.909,263.758h3.394v3.394h-3.394zM248.303,263.758h3.394v3.394h-3.394zM251.697,263.758h3.394v3.394h-3.394zM255.091,263.758h3.394v3.394h-3.394zM268.667,263.758h3.394v3.394h-3.394zM275.455,263.758h3.394v3.394h-3.394zM200.788,267.152h3.394v3.394h-3.394zM204.182,267.152h3.394v3.394h-3.394zM214.364,267.152h3.394v3.394h-3.394zM217.758,267.152h3.394v3.394h-3.394zM221.152,267.152h3.394v3.394h-3.394zM238.121,267.152h3.394v3.394h-3.394zM241.515,267.152h3.394v3.394h-3.394zM244.909,267.152h3.394v3.394h-3.394zM248.303,267.152h3.394v3.394h-3.394zM258.485,267.152h3.394v3.394h-3.394zM265.273,267.152h3.394v3.394h-3.394zM272.061,267.152h3.394v3.394h-3.394zM278.848,267.152h3.394v3.394h-3.394zM282.242,267.152h3.394v3.394h-3.394zM289.030,267.152h3.394v3.394h-3.394zM194.000,270.545h3.394v3.394h-3.394zM200.788,270.545h3.394v3.394h-3.394zM204.182,270.545h3.394v3.394h-3.394zM207.576,270.545h3.394v3.394h-3.394zM210.970,270.545h3.394v3.394h-3.394zM224.545,270.545h3.394v3.394h-3.394zM227.939,270.545h3.394v3.394h-3.394zM231.333,270.545h3.394v3.394h-3.394zM238.121,270.545h3.394v3.394h-3.394zM241.515,270.545h3.394v3.394h-3.394zM244.909,270.545h3.394v3.394h-3.394zM255.091,270.545h3.394v3.394h-3.394zM258.485,270.545h3.394v3.394h-3.394zM265.273,270.545h3.394v3.394h-3.394zM272.061,270.545h3.394v3.394h-3.394zM275.455,270.545h3.394v3.394h-3.394zM278.848,270.545h3.394v3.394h-3.394zM282.242,270.545h3.394v3.394h-3.394zM292.424,270.545h3.394v3.394h-3.394zM302.606,270.545h3.394v3.394h-3.394zM200.788,273.939h3.394v3.394h-3.394zM207.576,273.939h3.394v3.394h-3.394zM214.364,273.939h3.394v3.394h-3.394zM217.758,273.939h3.394v3.394h-3.394zM234.727,273.939h3.394v3.394h-3.394zM238.121,273.939h3.394v3.394h-3.394zM241.515,273.939h3.394v3.394h-3.394zM244.909,273.939h3.394v3.394h-3.394zM248.303,273.939h3.394v3.394h-3.394zM258.485,273.939h3.394v3.394h-3.394zM261.879,273.939h3.394v3.394h-3.394zM272.061,273.939h3.394v3.394h-3.394zM275.455,273.939h3.394v3.394h-3.394zM278.848,273.939h3.394v3.394h-3.394zM282.242,273.939h3.394v3.394h-3.394zM292.424,273.939h3.394v3.394h-3.394zM295.818,273.939h3.394v3.394h-3.394zM299.212,273.939h3.394v3.394h-3.394zM302.606,273.939h3.394v3.394h-3.394zM194.000,277.333h3.394v3.394h-3.394zM224.545,277.333h3.394v3.394h-3.394zM234.727,277.333h3.394v3.394h-3.394zM238.121,277.333h3.394v3.394h-3.394zM248.303,277.333h3.394v3.394h-3.394zM261.879,277.333h3.394v3.394h-3.394zM272.061,277.333h3.394v3.394h-3.394zM278.848,277.333h3.394v3.394h-3.394zM285.636,277.333h3.394v3.394h-3.394zM289.030,277.333h3.394v3.394h-3.394zM292.424,277.333h3.394v3.394h-3.394zM299.212,277.333h3.394v3.394h-3.394zM302.606,277.333h3.394v3.394h-3.394zM197.394,280.727h3.394v3.394h-3.394zM204.182,280.727h3.394v3.394h-3.394zM207.576,280.727h3.394v3.394h-3.394zM210.970,280.727h3.394v3.394h-3.394zM214.364,280.727h3.394v3.394h-3.394zM217.758,280.727h3.394v3.394h-3.394zM221.152,280.727h3.394v3.394h-3.394zM227.939,280.727h3.394v3.394h-3.394zM238.121,280.727h3.394v3.394h-3.394zM248.303,280.727h3.394v3.394h-3.394zM258.485,280.727h3.394v3.394h-3.394zM265.273,280.727h3.394v3.394h-3.394zM278.848,280.727h3.394v3.394h-3.394zM299.212,280.727h3.394v3.394h-3.394zM194.000,284.121h3.394v3.394h-3.394zM197.394,284.121h3.394v3.394h-3.394zM200.788,284.121h3.394v3.394h-3.394zM204.182,284.121h3.394v3.394h-3.394zM210.970,284.121h3.394v3.394h-3.394zM217.758,284.121h3.394v3.394h-3.394zM227.939,284.121h3.394v3.394h-3.394zM248.303,284.121h3.394v3.394h-3.394zM258.485,284.121h3.394v3.394h-3.394zM261.879,284.121h3.394v3.394h-3.394zM265.273,284.121h3.394v3.394h-3.394zM268.667,284.121h3.394v3.394h-3.394zM275.455,284.121h3.394v3.394h-3.394zM292.424,284.121h3.394v3.394h-3.394zM200.788,287.515h3.394v3.394h-3.394zM204.182,287.515h3.394v3.394h-3.394zM207.576,287.515h3.394v3.394h-3.394zM210.970,287.515h3.394v3.394h-3.394zM214.364,287.515h3.394v3.394h-3.394zM227.939,287.515h3.394v3.394h-3.394zM231.333,287.515h3.394v3.394h-3.394zM234.727,287.515h3.394v3.394h-3.394zM241.515,287.515h3.394v3.394h-3.394zM255.091,287.515h3.394v3.394h-3.394zM261.879,287.515h3.394v3.394h-3.394zM265.273,287.515h3.394v3.394h-3.394zM275.455,287.515h3.394v3.394h-3.394zM282.242,287.515h3.394v3.394h-3.394zM285.636,287.515h3.394v3.394h-3.394zM289.030,287.515h3.394v3.394h-3.394zM194.000,290.909h3.394v3.394h-3.394zM200.788,290.909h3.394v3.394h-3.394zM204.182,290.909h3.394v3.394h-3.394zM217.758,290.909h3.394v3.394h-3.394zM221.152,290.909h3.394v3.394h-3.394zM224.545,290.909h3.394v3.394h-3.394zM227.939,290.909h3.394v3.394h-3.394zM234.727,290.909h3.394v3.394h-3.394zM238.121,290.909h3.394v3.394h-3.394zM241.515,290.909h3.394v3.394h-3.394zM244.909,290.909h3.394v3.394h-3.394zM248.303,290.909h3.394v3.394h-3.394zM255.091,290.909h3.394v3.394h-3.394zM258.485,290.909h3.394v3.394h-3.394zM261.879,290.909h3.394v3.394h-3.394zM265.273,290.909h3.394v3.394h-3.394zM268.667,290.909h3.394v3.394h-3.394zM272.061,290.909h3.394v3.394h-3.394zM275.455,290.909h3.394v3.394h-3.394zM278.848,290.909h3.394v3.394h-3.394zM285.636,290.909h3.394v3.394h-3.394zM295.818,290.909h3.394v3.394h-3.394zM302.606,290.909h3.394v3.394h-3.394zM194.000,294.303h3.394v3.394h-3.394zM197.394,294.303h3.394v3.394h-3.394zM200.788,294.303h3.394v3.394h-3.394zM204.182,294.303h3.394v3.394h-3.394zM207.576,294.303h3.394v3.394h-3.394zM214.364,294.303h3.394v3.394h-3.394zM231.333,294.303h3.394v3.394h-3.394zM238.121,294.303h3.394v3.394h-3.394zM244.909,294.303h3.394v3.394h-3.394zM248.303,294.303h3.394v3.394h-3.394zM261.879,294.303h3.394v3.394h-3.394zM265.273,294.303h3.394v3.394h-3.394zM272.061,294.303h3.394v3.394h-3.394zM275.455,294.303h3.394v3.394h-3.394zM282.242,294.303h3.394v3.394h-3.394zM289.030,294.303h3.394v3.394h-3.394zM292.424,294.303h3.394v3.394h-3.394zM197.394,297.697h3.394v3.394h-3.394zM204.182,297.697h3.394v3.394h-3.394zM210.970,297.697h3.394v3.394h-3.394zM221.152,297.697h3.394v3.394h-3.394zM238.121,297.697h3.394v3.394h-3.394zM244.909,297.697h3.394v3.394h-3.394zM255.091,297.697h3.394v3.394h-3.394zM261.879,297.697h3.394v3.394h-3.394zM265.273,297.697h3.394v3.394h-3.394zM268.667,297.697h3.394v3.394h-3.394zM272.061,297.697h3.394v3.394h-3.394zM278.848,297.697h3.394v3.394h-3.394zM282.242,297.697h3.394v3.394h-3.394zM285.636,297.697h3.394v3.394h-3.394zM289.030,297.697h3.394v3.394h-3.394zM295.818,297.697h3.394v3.394h-3.394zM299.212,297.697h3.394v3.394h-3.394zM194.000,301.091h3.394v3.394h-3.394zM197.394,301.091h3.394v3.394h-3.394zM214.364,301.091h3.394v3.394h-3.394zM217.758,301.091h3.394v3.394h-3.394zM227.939,301.091h3.394v3.394h-3.394zM231.333,301.091h3.394v3.394h-3.394zM241.515,301.091h3.394v3.394h-3.394zM258.485,301.091h3.394v3.394h-3.394zM265.273,301.091h3.394v3.394h-3.394zM278.848,301.091h3.394v3.394h-3.394zM282.242,301.091h3.394v3.394h-3.394zM289.030,301.091h3.394v3.394h-3.394zM295.818,301.091h3.394v3.394h-3.394zM200.788,304.485h3.394v3.394h-3.394zM204.182,304.485h3.394v3.394h-3.394zM207.576,304.485h3.394v3.394h-3.394zM210.970,304.485h3.394v3.394h-3.394zM231.333,304.485h3.394v3.394h-3.394zM241.515,304.485h3.394v3.394h-3.394zM248.303,304.485h3.394v3.394h-3.394zM268.667,304.485h3.394v3.394h-3.394zM285.636,304.485h3.394v3.394h-3.394zM289.030,304.485h3.394v3.394h-3.394zM194.000,307.879h3.394v3.394h-3.394zM200.788,307.879h3.394v3.394h-3.394zM210.970,307.879h3.394v3.394h-3.394zM214.364,307.879h3.394v3.394h-3.394zM221.152,307.879h3.394v3.394h-3.394zM224.545,307.879h3.394v3.394h-3.394zM231.333,307.879h3.394v3.394h-3.394zM234.727,307.879h3.394v3.394h-3.394zM241.515,307.879h3.394v3.394h-3.394zM244.909,307.879h3.394v3.394h-3.394zM248.303,307.879h3.394v3.394h-3.394zM255.091,307.879h3.394v3.394h-3.394zM258.485,307.879h3.394v3.394h-3.394zM261.879,307.879h3.394v3.394h-3.394zM265.273,307.879h3.394v3.394h-3.394zM275.455,307.879h3.394v3.394h-3.394zM282.242,307.879h3.394v3.394h-3.394zM292.424,307.879h3.394v3.394h-3.394zM295.818,307.879h3.394v3.394h-3.394zM299.212,307.879h3.394v3.394h-3.394zM194.000,311.273h3.394v3.394h-3.394zM197.394,311.273h3.394v3.394h-3.394zM200.788,311.273h3.394v3.394h-3.394zM217.758,311.273h3.394v3.394h-3.394zM221.152,311.273h3.394v3.394h-3.394zM224.545,311.273h3.394v3.394h-3.394zM244.909,311.273h3.394v3.394h-3.394zM251.697,311.273h3.394v3.394h-3.394zM255.091,311.273h3.394v3.394h-3.394zM265.273,311.273h3.394v3.394h-3.394zM275.455,311.273h3.394v3.394h-3.394zM302.606,311.273h3.394v3.394h-3.394zM200.788,314.667h3.394v3.394h-3.394zM207.576,314.667h3.394v3.394h-3.394zM210.970,314.667h3.394v3.394h-3.394zM214.364,314.667h3.394v3.394h-3.394zM217.758,314.667h3.394v3.394h-3.394zM224.545,314.667h3.394v3.394h-3.394zM231.333,314.667h3.394v3.394h-3.394zM238.121,314.667h3.394v3.394h-3.394zM248.303,314.667h3.394v3.394h-3.394zM255.091,314.667h3.394v3.394h-3.394zM258.485,314.667h3.394v3.394h-3.394zM272.061,314.667h3.394v3.394h-3.394zM275.455,314.667h3.394v3.394h-3.394zM282.242,314.667h3.394v3.394h-3.394zM289.030,314.667h3.394v3.394h-3.394zM302.606,314.667h3.394v3.394h-3.394zM197.394,318.061h3.394v3.394h-3.394zM200.788,318.061h3.394v3.394h-3.394zM204.182,318.061h3.394v3.394h-3.394zM227.939,318.061h3.394v3.394h-3.394zM238.121,318.061h3.394v3.394h-3.394zM244.909,318.061h3.394v3.394h-3.394zM261.879,318.061h3.394v3.394h-3.394zM278.848,318.061h3.394v3.394h-3.394zM285.636,318.061h3.394v3.394h-3.394zM292.424,318.061h3.394v3.394h-3.394zM299.212,318.061h3.394v3.394h-3.394zM302.606,318.061h3.394v3.394h-3.394zM194.000,321.455h3.394v3.394h-3.394zM200.788,321.455h3.394v3.394h-3.394zM207.576,321.455h3.394v3.394h-3.394zM210.970,321.455h3.394v3.394h-3.394zM214.364,321.455h3.394v3.394h-3.394zM217.758,321.455h3.394v3.394h-3.394zM221.152,321.455h3.394v3.394h-3.394zM224.545,321.455h3.394v3.394h-3.394zM234.727,321.455h3.394v3.394h-3.394zM238.121,321.455h3.394v3.394h-3.394zM255.091,321.455h3.394v3.394h-3.394zM258.485,321.455h3.394v3.394h-3.394zM275.455,321.455h3.394v3.394h-3.394zM278.848,321.455h3.394v3.394h-3.394zM282.242,321.455h3.394v3.394h-3.394zM285.636,321.455h3.394v3.394h-3.394zM289.030,321.455h3.394v3.394h-3.394zM221.152,324.848h3.394v3.394h-3.394zM224.545,324.848h3.394v3.394h-3.394zM231.333,324.848h3.394v3.394h-3.394zM234.727,324.848h3.394v3.394h-3.394zM238.121,324.848h3.394v3.394h-3.394zM255.091,324.848h3.394v3.394h-3.394zM258.485,324.848h3.394v3.394h-3.394zM265.273,324.848h3.394v3.394h-3.394zM268.667,324.848h3.394v3.394h-3.394zM272.061,324.848h3.394v3.394h-3.394zM275.455,324.848h3.394v3.394h-3.394zM289.030,324.848h3.394v3.394h-3.394zM292.424,324.848h3.394v3.394h-3.394zM194.000,328.242h3.394v3.394h-3.394zM197.394,328.242h3.394v3.394h-3.394zM200.788,328.242h3.394v3.394h-3.394zM204.182,328.242h3.394v3.394h-3.394zM207.576,328.242h3.394v3.394h-3.394zM210.970,328.242h3.394v3.394h-3.394zM214.364,328.242h3.394v3.394h-3.394zM221.152,328.242h3.394v3.394h-3.394zM227.939,328.242h3.394v3.394h-3.394zM231.333,328.242h3.394v3.394h-3.394zM248.303,328.242h3.394v3.394h-3.394zM255.091,328.242h3.394v3.394h-3.394zM261.879,328.242h3.394v3.394h-3.394zM265.273,328.242h3.394v3.394h-3.394zM272.061,328.242h3.394v3.394h-3.394zM275.455,328.242h3.394v3.394h-3.394zM282.242,328.242h3.394v3.394h-3.394zM289.030,328.242h3.394v3.394h-3.394zM292.424,328.242h3.394v3.394h-3.394zM295.818,328.242h3.394v3.394h-3.394zM194.000,331.636h3.394v3.394h-3.394zM214.364,331.636h3.394v3.394h-3.394zM224.545,331.636h3.394v3.394h-3.394zM227.939,331.636h3.394v3.394h-3.394zM234.727,331.636h3.394v3.394h-3.394zM244.909,331.636h3.394v3.394h-3.394zM261.879,331.636h3.394v3.394h-3.394zM272.061,331.636h3.394v3.394h-3.394zM275.455,331.636h3.394v3.394h-3.394zM289.030,331.636h3.394v3.394h-3.394zM292.424,331.636h3.394v3.394h-3.394zM295.818,331.636h3.394v3.394h-3.394zM299.212,331.636h3.394v3.394h-3.394zM302.606,331.636h3.394v3.394h-3.394zM194.000,335.030h3.394v3.394h-3.394zM200.788,335.030h3.394v3.394h-3.394zM204.182,335.030h3.394v3.394h-3.394zM207.576,335.030h3.394v3.394h-3.394zM214.364,335.030h3.394v3.394h-3.394zM251.697,335.030h3.394v3.394h-3.394zM268.667,335.030h3.394v3.394h-3.394zM272.061,335.030h3.394v3.394h-3.394zM275.455,335.030h3.394v3.394h-3.394zM278.848,335.030h3.394v3.394h-3.394zM282.242,335.030h3.394v3.394h-3.394zM285.636,335.030h3.394v3.394h-3.394zM289.030,335.030h3.394v3.394h-3.394zM292.424,335.030h3.394v3.394h-3.394zM295.818,335.030h3.394v3.394h-3.394zM299.212,335.030h3.394v3.394h-3.394zM194.000,338.424h3.394v3.394h-3.394zM200.788,338.424h3.394v3.394h-3.394zM204.182,338.424h3.394v3.394h-3.394zM207.576,338.424h3.394v3.394h-3.394zM214.364,338.424h3.394v3.394h-3.394zM221.152,338.424h3.394v3.394h-3.394zM227.939,338.424h3.394v3.394h-3.394zM231.333,338.424h3.394v3.394h-3.394zM238.121,338.424h3.394v3.394h-3.394zM248.303,338.424h3.394v3.394h-3.394zM251.697,338.424h3.394v3.394h-3.394zM255.091,338.424h3.394v3.394h-3.394zM258.485,338.424h3.394v3.394h-3.394zM265.273,338.424h3.394v3.394h-3.394zM268.667,338.424h3.394v3.394h-3.394zM272.061,338.424h3.394v3.394h-3.394zM275.455,338.424h3.394v3.394h-3.394zM285.636,338.424h3.394v3.394h-3.394zM292.424,338.424h3.394v3.394h-3.394zM295.818,338.424h3.394v3.394h-3.394zM194.000,341.818h3.394v3.394h-3.394zM200.788,341.818h3.394v3.394h-3.394zM204.182,341.818h3.394v3.394h-3.394zM207.576,341.818h3.394v3.394h-3.394zM214.364,341.818h3.394v3.394h-3.394zM221.152,341.818h3.394v3.394h-3.394zM244.909,341.818h3.394v3.394h-3.394zM248.303,341.818h3.394v3.394h-3.394zM255.091,341.818h3.394v3.394h-3.394zM268.667,341.818h3.394v3.394h-3.394zM272.061,341.818h3.394v3.394h-3.394zM278.848,341.818h3.394v3.394h-3.394zM282.242,341.818h3.394v3.394h-3.394zM194.000,345.212h3.394v3.394h-3.394zM214.364,345.212h3.394v3.394h-3.394zM227.939,345.212h3.394v3.394h-3.394zM234.727,345.212h3.394v3.394h-3.394zM238.121,345.212h3.394v3.394h-3.394zM248.303,345.212h3.394v3.394h-3.394zM255.091,345.212h3.394v3.394h-3.394zM258.485,345.212h3.394v3.394h-3.394zM265.273,345.212h3.394v3.394h-3.394zM272.061,345.212h3.394v3.394h-3.394zM275.455,345.212h3.394v3.394h-3.394zM282.242,345.212h3.394v3.394h-3.394zM295.818,345.212h3.394v3.394h-3.394zM302.606,345.212h3.394v3.394h-3.394zM194.000,348.606h3.394v3.394h-3.394zM197.394,348.606h3.394v3.394h-3.394zM200.788,348.606h3.394v3.394h-3.394zM204.182,348.606h3.394v3.394h-3.394zM207.576,348.606h3.394v3.394h-3.394zM210.970,348.606h3.394v3.394h-3.394zM214.364,348.606h3.394v3.394h-3.394zM231.333,348.606h3.394v3.394h-3.394zM248.303,348.606h3.394v3.394h-3.394zM255.091,348.606h3.394v3.394h-3.394zM258.485,348.606h3.394v3.394h-3.394zM272.061,348.606h3.394v3.394h-3.394zM285.636,348.606h3.394v3.394h-3.394zM289.030,348.606h3.394v3.394h-3.394z" fill="#000000" shape-rendering="crispEdges"/>
<text x="78.00" y="378.00" font-family="Inter Display, Inter, Helvetica Neue, Helvetica, Arial, sans-serif" font-size="14.00" font-weight="700" fill="#0A0A23" text-anchor="middle" letter-spacing="0.00">Tap here</text>
<text x="250.00" y="378.00" font-family="Inter Display, Inter, Helvetica Neue, Helvetica, Arial, sans-serif" font-size="14.00" font-weight="700" fill="#0A0A23" text-anchor="middle" letter-spacing="0.00">Scan code</text>
</svg>
